<svg viewBox="0 0 512 512" xmlns="http://www.w3.org/2000/svg" xmlns:xlink="http://www.w3.org/1999/xlink"><linearGradient id="a" gradientTransform="matrix(1 0 0 -1 0 -10886)" gradientUnits="userSpaceOnUse" x1="0" x2="512" y1="-11142" y2="-11142"><stop offset="0" stop-color="#00f1ff"/><stop offset=".231" stop-color="#00d8ff"/><stop offset=".5138" stop-color="#00c0ff"/><stop offset=".7773" stop-color="#00b2ff"/><stop offset="1" stop-color="#00adff"/></linearGradient><path d="m512 256c0 141.386719-114.613281 256-256 256s-256-114.613281-256-256 114.613281-256 256-256 256 114.613281 256 256zm0 0" fill="url(#a)"/><g fill="#fff"><path d="m343.183594 343.960938c-7.695313-3.050782-16.417969.722656-19.46875 8.425781-6.300782 15.910156-21.082032 25.796875-38.574219 25.796875h-69.769531c-17.660156 0-32.03125-14.371094-32.03125-32.035156 0-8.285157-6.71875-15-15-15-8.285156 0-15 6.714843-15 15 0 34.207031 27.828125 62.035156 62.03125 62.035156h24.980468v32.816406c0 8.285156 6.714844 15 15 15 8.285157 0 15-6.714844 15-15v-32.816406h14.789063c29.613281 0 55.703125-17.570313 66.46875-44.753906 3.046875-7.703126-.722656-16.417969-8.425781-19.46875zm0 0"/><path d="m233.402344 263.945312h51.738281c17.351563 0 32.148437 9.925782 38.617187 25.902344 2.359376 5.835938 7.976563 9.375 13.90625 9.375 1.875 0 3.78125-.351562 5.625-1.097656 7.679688-3.109375 11.382813-11.855469 8.273438-19.53125-10.976562-27.125-37.050781-44.648438-66.425781-44.648438h-51.734375c-23.285156 0-42.226563-18.941406-42.226563-42.226562v-15.675781c0-23.285157 18.941407-42.226563 42.226563-42.226563h50.167968c17.664063 0 32.035157 14.371094 32.035157 32.035156 0 8.285157 6.714843 15 15 15 8.28125 0 15-6.714843 15-15 0-34.207031-27.828125-62.035156-62.035157-62.035156h-13.21875v-32.816406c0-8.285156-6.71875-15-15-15-8.285156 0-15 6.714844-15 15v32.816406h-6.949218c-39.828125 0-72.226563 32.402344-72.226563 72.226563v15.679687c.003907 39.824219 32.402344 72.222656 72.226563 72.222656zm0 0"/></g></svg>