<svg height="512pt" viewBox="0 -19 512.00014 512" width="512pt" xmlns="http://www.w3.org/2000/svg"><path d="m442.980469 69.578125c-44.5-44.816406-103.640625-69.5273438-166.582031-69.578125h-.199219c-63.007813 0-122.238281 24.710938-166.777344 69.578125-44.511719 44.851563-69.023437 104.460937-69.023437 167.863281 0 36.699219 8.523437 73.148438 24.660156 105.789063-7.726563 29.089843-28.359375 53.257812-56.027344 65.257812-7.601562 3.300781-11.082031 12.140625-7.792969 19.742188.632813 1.441406 1.460938 2.738281 2.441407 3.871093 9.980468 11.46875 22.160156 20.488282 35.640624 26.648438 13.480469 6.148438 28.238282 9.441406 43.371094 9.441406 26.507813 0 51.738282-10.011718 71-27.839844 36.859375 22.628907 78.949219 34.527344 122.507813 34.527344h.199219c62.941406-.050781 122.082031-24.757812 166.582031-69.578125 44.507812-44.851562 69.019531-104.460937 69.019531-167.859375 0-63.402344-24.511719-123.011718-69.019531-167.863281zm0 0" fill="#c5f4ff"/><path d="m512 237.441406c0 63.398438-24.511719 123.007813-69.019531 167.859375-44.5 44.820313-103.640625 69.527344-166.582031 69.578125v-474.878906c62.941406.0507812 122.082031 24.761719 166.582031 69.578125 44.507812 44.851563 69.019531 104.460937 69.019531 167.863281zm0 0" fill="#73d2ef"/><path d="m276.398438 99.191406c-33.179688 0-60.167969 26.988282-60.167969 60.160156v70.167969h120.339843v-70.167969c0-33.171874-26.988281-60.160156-60.171874-60.160156zm30.171874 101.328125h-60.339843v-41.167969c0-16.632812 13.539062-30.160156 30.167969-30.160156 16.632812 0 30.171874 13.527344 30.171874 30.160156zm0 0" fill="#fff"/><path d="m336.570312 159.351562v70.167969h-60.171874v-29h30.171874v-41.167969c0-16.632812-13.539062-30.160156-30.171874-30.160156v-30c33.183593 0 60.171874 26.988282 60.171874 60.160156zm0 0" fill="#c5f4ff"/><path d="m374.488281 220.261719v104.808593c0 27.910157-22.707031 50.621094-50.617187 50.621094h-94.941406c-27.910157 0-50.621094-22.710937-50.621094-50.621094v-104.808593c0-11.441407 9.3125-20.742188 20.75-20.742188h154.679687c11.441407 0 20.75 9.300781 20.75 20.742188zm0 0" fill="#005fe4"/><path d="m374.488281 220.261719v104.808593c0 27.910157-22.707031 50.621094-50.617187 50.621094h-47.472656v-176.171875h77.339843c11.441407 0 20.75 9.300781 20.75 20.742188zm0 0" fill="#0040a0"/><path d="m291.398438 272.519531v30.179688c0 8.28125-6.71875 15-15 15-8.277344 0-15-6.71875-15-15v-30.179688c0-8.289062 6.722656-15 15-15 8.28125 0 15 6.710938 15 15zm0 0" fill="#fff"/><path d="m291.398438 272.519531v30.179688c0 8.28125-6.71875 15-15 15v-60.179688c8.28125 0 15 6.710938 15 15zm0 0" fill="#c5f4ff"/></svg>