<?xml version="1.0" encoding="utf-8"?>
<!-- Generator: Adobe Illustrator 24.1.2, SVG Export Plug-In . SVG Version: 6.00 Build 0)  -->
<svg version="1.1" id="Layer_1" xmlns="http://www.w3.org/2000/svg" xmlns:xlink="http://www.w3.org/1999/xlink" x="0px" y="0px"
	 viewBox="0 0 837 768" style="enable-background:new 0 0 837 768;" xml:space="preserve">
<style type="text/css">
	.st0{fill:#007E9A;}
	.st1{fill:#006379;}
	.st2{fill-rule:evenodd;clip-rule:evenodd;}
	.st3{fill:url(#SVGID_1_);}
</style>
<g>
	<g>
		<path class="st0" d="M45.9,465.32c0,0,33.05-40.67,66.1-24.15s59.18,55.86,92.62,39.4c33.44-16.45,16.01-72.27,53.92-52.92
			c37.91,19.35,40.42,46.3,78.45,37.66c38.03-8.64,111.96-134.35,128.38-104.23c16.42,30.12-23.12,56.29,0,47.03
			c23.12-9.26,78.29-119.11,113.55-110.59c35.26,8.52-36.01,60.62,32.63,27.77c68.64-32.85,90.25-177.94,208.46-123.83
			c0,0-13.98-36.14-130.92-28.51c-116.94,7.63-291.08,14.41-311.42-1.06c-20.34-15.47-91.1-14.2-91.1-14.2S70.05,362.36,45.9,465.32
			z"/>
		<path class="st1" d="M286.55,157.71c0,0-163.97,127.41-219.29,220.5c-55.32,93.09-52.66,100.19-52.66,100.19
			s52.9,50.46,83.41,50.46C98.01,528.87,26.83,447.52,286.55,157.71z"/>
	</g>
	<path class="st1" d="M455.18,343.71c0,0-106.18-114.48-100.05-130.43c6.14-15.95,224.78,83.12,224.78,83.12
		s-12.86-6.23-52.24,36.97c-34.79,38.16-40.78,66.55-69.28,76.54l10.57-28.06C473.25,357.8,455.18,343.71,455.18,343.71z"/>
	<g>
		<path class="st2" d="M208,276.79c3.81-6.74,7.85-13.37,11.3-20.28c1.2-2.4,2.01-5.84,1.19-8.2c-4.12-11.87-1.67-22.4,4.63-32.92
			c2.21-3.69,3.57-8.93,2.84-13.04c-2.32-13.02,2.88-22.87,13.02-29.83c5.78-3.96,13.33-5.86,20.37-7.52
			c5.31-1.26,9.98-2.59,13.98-6.54c4.72-4.66,10.43-7.86,17.56-7.94c4.34-0.04,7.99-4.2,8.62-10.02
			c1.75-16.18,3.55-32.37,4.76-48.59c0.39-5.2,2.48-8.23,7.36-8.88c7.66-1.03,15.41-2.14,23.1-1.96c8.58,0.2,17.11,1.81,26.92,2.96
			c-2.53,2.27-4,3.59-6.03,5.4c2.5,0.2,4.28,0.35,6.81,0.56c-1.52,1.14-2.52,2.01-3.64,2.72c-6.43,4.05-10.14,9.83-11.49,17.12
			c-1.01,5.47-1.85,10.97-3.04,16.41c-1.74,7.97-0.17,15.4,3.38,22.55c0.52,1.05,1.73,1.87,2.8,2.53c1.43,0.89,3.12,1.37,4.54,2.28
			c6.8,4.33,13.68,7.56,22.08,8.99c13.75,2.34,24.58,9.81,28.69,23.88c0.9,3.08,1.01,6.58,0.61,9.78c-0.65,5.22-0.12,9.9,3.27,14.17
			c7.82,9.86,10.49,20.61,6.62,32.91c-0.77,2.43,0.67,6.01,2.12,8.5c2.13,3.67,5.38,6.69,7.79,10.22
			c9.15,13.37,2.65,25.96-2.32,38.56c-0.88,2.23-2.06,4.4-3.43,6.39c-5.99,8.73-8.59,17.71-7.39,28.72
			c0.89,8.11-2.06,16.82-4.4,24.95c-0.83,2.89-4.92,4.87-7.53,7.28c2.59,13.38,5.61,27.63,8.01,41.97
			c1.19,7.1,0.82,14.45,1.93,21.57c1.92,12.2,3.67,24.52,6.92,36.42c4.34,15.84,4.08,31.95,5,48.01c0.54,9.43,0.2,18.91,0.49,28.35
			c0.06,1.81,0.94,3.77,1.95,5.34c2.8,4.39,4.26,8.97,5.53,14.1c1.65,6.68,6.61,12.6,10.33,18.74c1.44,2.37,3.69,4.28,5.01,6.7
			c3.1,5.65,1.02,10.67-5.42,10.78c-9.2,0.16-18.46-1.04-27.63-2.16c-4.57-0.56-8.99-2.26-13.73-3.5
			c6.29-17.22,4.3-34.12,4.61-50.92c0.34-19.05-11.17-32.68-21.31-46.76c-7.25-10.07-9.28-19.93-6.39-31.84
			c2.86-11.8,3.64-24.06-3.17-35.13c-2.47-4.01-5.86-7.81-9.67-10.63c-10.98-8.15-18.11-18.83-22.4-31.31
			c-3.14-9.12-5.23-18.57-7.91-27.85c-0.3-1.05-1.4-1.87-2.13-2.8c-0.94,0.92-2.43,1.71-2.73,2.8c-2.79,10.2-5.87,20.36-7.89,30.71
			c-2.77,14.23-10.96,25.37-19.59,36.5c-2.75,3.55-4.62,7.8-6.58,11.87c-0.95,1.97-0.93,4.38-1.78,6.42
			c-4.37,10.42-4.59,21.19-5.29,32.33c-1.08,17.15-6.63,33.95-17.77,47.88c-7.94,9.93-10.64,20.75-10.33,32.97
			c0.28,11.11,0.29,22.13,3.56,32.97c0.91,3,0.19,6.7-0.61,9.87c-0.42,1.67-2.66,4.14-4.07,4.14c-13.22-0.01-26.45-0.24-39.65-0.94
			c-4.59-0.24-3.28-3.52-1.69-6.1c3.61-5.87,7.21-11.74,10.93-17.53c7.53-11.76,10.33-24.89,12.21-38.39
			c2.27-16.28,2.6-32.27-1.4-48.53c-3.43-13.94,1.18-27.26,10.53-37.86c10.03-11.38,13.14-24.09,12.9-38.44
			c-0.53-32.65,7.01-63.54,22.05-92.66c6.89-13.34,10.31-27.36,9.19-42.31c-0.14-1.91-0.55-4.25-1.78-5.54
			c-8.17-8.65-16.6-17.08-24.96-25.59c-1.89,8.75-9.57,14.35-16.97,20.25c-1,0.79-1.68,2.84-1.42,4.11
			c1.84,9.09,0.09,17.59-3.6,25.95c-1.49,3.37-2.8,6.94-3.35,10.55c-1.39,9.05,2.93,15.66,10.13,20.94c7,5.13,7.06,6.11,3.48,13.52
			c-0.58,1.22-0.36,3.3,0.34,4.51c2.08,3.6,1.17,6.21-1.8,8.79c-2.83,2.46-5.29,5.32-8.07,7.83c-5.94,5.36-12.96,3.67-15.28-3.9
			c-3.1-10.11-6.06-20.26-4.6-31.11c0.4-2.96-0.15-6.43-1.4-9.16c-5.71-12.45-11.83-24.72-17.81-37.06
			C208,283.47,208,280.13,208,276.79z M380.7,338.51c3.2-3.65,5.26-6.56,7.87-8.89c10.31-9.25,13.07-22.72,7.74-35.35
			c-3.09-7.32-8.43-14.18-6.42-22.97c0.2-0.89-0.45-2.33-1.19-3.01c-5.02-4.64-10.16-9.14-15.33-13.74
			c-8.06,10.73-8.32,12.14-9.86,50.18C369.1,315.72,374.7,326.71,380.7,338.51z"/>
	</g>
	
		<radialGradient id="SVGID_1_" cx="455.1569" cy="499.9319" r="37.1701" gradientTransform="matrix(0.8535 -0.5514 1.1283 1.6684 -620.3408 -375.8461)" gradientUnits="userSpaceOnUse">
		<stop  offset="0" style="stop-color:#D7D8DC"/>
		<stop  offset="0.25" style="stop-color:#EBEDEF"/>
		<stop  offset="0.75" style="stop-color:#AEADB3"/>
		<stop  offset="1" style="stop-color:#D7D8DC"/>
	</radialGradient>
	<path class="st3" d="M367.54,194.14c0,0-23.25-7.64-72.06,2.41c0,0,25.92,23.07,39.18,31.19
		C334.66,227.74,359.25,206.75,367.54,194.14z"/>
	<path class="st1" d="M312.4,163.25c0,0-10.93-12.63-19.51-12.72c-13.83-0.14-25.38,12.72-25.38,12.72S272.36,175.17,312.4,163.25z"
		/>
	<path class="st1" d="M379.06,162.59c0,0-12.51-11.73-29.42-13.8c0,0-5.41,6.3-7.13,12.9C342.07,163.38,362.03,164.92,379.06,162.59
		z"/>
</g>
</svg>
